<svg width="24" height="20" viewBox="0 0 24 20" fill="none" xmlns="http://www.w3.org/2000/svg">
<path fill-rule="evenodd" clip-rule="evenodd" d="M0.146447 6.35355C-0.0488155 6.15829 -0.0488155 5.84171 0.146447 5.64645L5.64645 0.146447C5.74021 0.0526784 5.86739 0 6 0H8.43251C8.64773 0 8.83896 0.136412 8.92243 0.334782C9.25167 1.11724 10.2085 3 11.7929 3C13.3773 3 14.3341 1.11725 14.6634 0.334782C14.7468 0.136412 14.9381 0 15.1533 0H17.5858C17.7184 0 17.8456 0.0526784 17.9393 0.146447L23.4393 5.64645C23.6346 5.84171 23.6346 6.15829 23.4393 6.35355L21.1464 8.64645C20.9512 8.84171 20.6346 8.84171 20.4393 8.64645L18.6464 6.85355C18.3315 6.53857 17.7929 6.76165 17.7929 7.20711V17.5C17.7929 17.7761 17.569 18 17.2929 18H6.29289C6.01675 18 5.79289 17.7761 5.79289 17.5V7.20711C5.79289 6.76165 5.25432 6.53857 4.93934 6.85355L3.14645 8.64645C2.95118 8.84171 2.6346 8.84171 2.43934 8.64645L0.146447 6.35355Z" fill="#0959A1"/>
<path d="M11.323 13V8.5H10.018V7.375H11.053C11.233 7.375 11.323 7.285 11.323 7.105V6.7H12.493V13H11.323Z" fill="white"/>
</svg>
