<svg width="16" height="4" viewBox="0 0 16 4" fill="none" xmlns="http://www.w3.org/2000/svg">
<path d="M16 2C16 3.10457 15.1046 4 14 4C12.8954 4 12 3.10457 12 2C12 0.895431 12.8954 6.511e-07 14 6.99382e-07C15.1046 7.47665e-07 16 0.895431 16 2Z" fill="#0959A1"/>
<path d="M10 2C10 3.10457 9.10457 4 8 4C6.89543 4 6 3.10457 6 2C6 0.895432 6.89543 3.01409e-07 8 3.49691e-07C9.10457 3.97973e-07 10 0.895432 10 2Z" fill="#0959A1"/>
<path d="M2 4C3.10457 4 4 3.10457 4 2C4 0.895431 3.10457 4.82822e-08 2 0C0.89543 -4.82823e-08 4.82823e-08 0.895432 0 2C-4.82823e-08 3.10457 0.895432 4 2 4Z" fill="#0959A1"/>
</svg>
