<svg width="29" height="17" viewBox="0 0 29 17" fill="none" xmlns="http://www.w3.org/2000/svg">
<path d="M2.16896 12.0153C3.35507 8.93142 6.31798 6.89648 9.62214 6.89648H24.8274L28.2757 15.8621H0.689453L2.16896 12.0153Z" stroke="#0959A1" stroke-width="1.37931" stroke-linecap="round" stroke-linejoin="round"/>
<path d="M6.33984 -0.00020206C5.95896 -0.00020206 5.65019 0.308567 5.65019 0.689453C5.65019 1.07034 5.95896 1.37911 6.33984 1.37911V-0.00020206ZM22.6765 1.37045L22.0332 1.619L22.6765 1.37045ZM28.9188 15.6133L23.3198 1.1219L22.0332 1.619L27.6321 16.1104L28.9188 15.6133ZM21.6833 -0.00020206H6.33984V1.37911H21.6833V-0.00020206ZM23.3198 1.1219C23.0585 0.445681 22.4083 -0.00020206 21.6833 -0.00020206V1.37911C21.8383 1.37911 21.9773 1.47443 22.0332 1.619L23.3198 1.1219Z" fill="#0959A1"/>
<circle cx="14.1382" cy="11.3804" r="1.72414" fill="#0959A1"/>
</svg>
