<?xml version="1.0" encoding="utf-8"?>
<!-- Generator: Adobe Illustrator 24.0.0, SVG Export Plug-In . SVG Version: 6.00 Build 0)  -->
<svg version="1.1" id="Слой_1" xmlns="http://www.w3.org/2000/svg" xmlns:xlink="http://www.w3.org/1999/xlink" x="0px" y="0px"
	 width="14.9px" height="14.8px" viewBox="0 0 14.9 14.8" enable-background="new 0 0 14.9 14.8" xml:space="preserve">
<g>
	<path fill="#0959A1" d="M12.7,14.8H2.3c-0.7,0-1.3-0.3-1.7-0.8s-0.6-1.2-0.5-1.8l0.9-5C1.1,6,2,5.3,3.1,5.3h8.7
		c1.1,0,2,0.8,2.2,1.9l0.9,5c0.1,0.7-0.1,1.3-0.5,1.8S13.3,14.8,12.7,14.8z M3.1,6.8C2.8,6.8,2.4,7,2.4,7.4l-0.9,5
		c-0.1,0.3,0.1,0.5,0.2,0.6s0.3,0.3,0.6,0.3h10.4c0.2,0,0.4-0.1,0.6-0.3s0.2-0.4,0.2-0.6l-0.9-5c-0.1-0.4-0.4-0.6-0.7-0.6H3.1z"/>
	<g>
		<path fill="#FFFFFF" d="M7.5,9.8C7.5,9.8,7.4,9.8,7.5,9.8C7.1,9.3,6.6,8.6,6.1,7.9c-0.5-0.7-1-1.5-1.3-2.3
			C4.4,4.8,4.2,4.1,4.2,3.7c0-1.1,0.4-1.8,1-2.2C5.8,1,6.6,0.7,7.5,0.7S9.2,1,9.7,1.5c0.6,0.4,1,1.1,1,2.2c0,0.5-0.2,1.1-0.6,1.9
			C9.8,6.3,9.3,7.1,8.8,7.9C8.4,8.6,7.9,9.3,7.5,9.8C7.5,9.8,7.5,9.8,7.5,9.8z"/>
		<path fill="#0959A1" d="M7.5,11l-0.7-0.8C6.5,9.8,6,9.1,5.5,8.3c-0.6-0.9-1-1.7-1.4-2.4C3.7,5,3.5,4.3,3.5,3.7
			c0-1.2,0.4-2.1,1.2-2.8C5.4,0.3,6.4,0,7.5,0s2,0.3,2.8,0.9c0.8,0.6,1.3,1.6,1.3,2.8c0,0.6-0.2,1.3-0.6,2.2
			C10.5,6.6,10,7.4,9.5,8.3c-0.5,0.8-1,1.5-1.4,1.9L7.5,11z M7.5,1.5C6.7,1.5,6.1,1.7,5.6,2C5.2,2.4,5,2.9,5,3.7
			C5,3.9,5,4.4,5.5,5.3c0.3,0.6,0.7,1.4,1.3,2.2C7,7.9,7.2,8.2,7.5,8.5C7.7,8.2,8,7.9,8.2,7.5c0.5-0.8,1-1.6,1.3-2.2
			C9.9,4.4,10,3.9,10,3.7C10,2.9,9.7,2.4,9.3,2C8.8,1.7,8.2,1.5,7.5,1.5z"/>
	</g>
	<circle fill="#0959A1" cx="7.5" cy="4" r="1.5"/>
</g>
</svg>
