<svg width="31" height="18" viewBox="0 0 31 18" fill="none" xmlns="http://www.w3.org/2000/svg">
<path d="M0.691406 0.689453L3.06584 14.9361C3.28754 16.2662 4.4384 17.2412 5.78693 17.2412H24.5614C25.9099 17.2412 27.0608 16.2662 27.2825 14.9361L29.6569 0.689453" stroke="#0959A1" stroke-width="1.37931" stroke-linecap="round" stroke-linejoin="round"/>
<path d="M0.691406 4.13732L4.45949 3.06073C6.71428 2.41651 9.11703 2.5195 11.3084 3.35432V3.35432C13.7983 4.30284 16.55 4.30284 19.0399 3.35432V3.35432C21.2313 2.5195 23.6341 2.4165 25.8888 3.06073L29.6569 4.13732" stroke="#0959A1" stroke-width="1.37931"/>
<path d="M10.3059 12.1389V11.3963L12.6209 7.33428H14.0622V11.309H14.8048V12.1389H14.0622V13.4492H13.145V12.1389H10.3059ZM11.3979 11.309H13.145V8.46991H12.9703L11.3979 11.2653V11.309ZM18.9438 12.0777C19.2408 11.6817 19.3893 11.1197 19.3893 10.3917C19.3893 9.66378 19.2408 9.1047 18.9438 8.71451C18.6467 8.31849 18.2857 8.12048 17.8605 8.12048C17.4354 8.12048 17.0743 8.31849 16.7773 8.71451C16.4803 9.1047 16.3318 9.66378 16.3318 10.3917C16.3318 11.1197 16.4803 11.6817 16.7773 12.0777C17.0743 12.4679 17.4354 12.663 17.8605 12.663C18.2857 12.663 18.6467 12.4679 18.9438 12.0777ZM16.1221 8.09428C16.5939 7.52937 17.1733 7.24692 17.8605 7.24692C18.5477 7.24692 19.1272 7.52937 19.5989 8.09428C20.0706 8.65918 20.3065 9.425 20.3065 10.3917C20.3065 11.3585 20.0706 12.1243 19.5989 12.6892C19.1272 13.2541 18.5477 13.5366 17.8605 13.5366C17.1733 13.5366 16.5939 13.2541 16.1221 12.6892C15.6504 12.1243 15.4146 11.3585 15.4146 10.3917C15.4146 9.425 15.6504 8.65918 16.1221 8.09428ZM22.4306 8.06807C22.2792 8.21949 22.0812 8.2952 21.8366 8.2952C21.592 8.2952 21.3911 8.21949 21.2339 8.06807C21.0824 7.91083 21.0067 7.70991 21.0067 7.46531C21.0067 7.22071 21.0824 7.0227 21.2339 6.87129C21.3911 6.71405 21.592 6.63542 21.8366 6.63542C22.0812 6.63542 22.2792 6.71405 22.4306 6.87129C22.5879 7.0227 22.6665 7.22071 22.6665 7.46531C22.6665 7.70991 22.5879 7.91083 22.4306 8.06807ZM21.592 7.71864C21.6619 7.7827 21.7434 7.81474 21.8366 7.81474C21.9298 7.81474 22.0113 7.7827 22.0812 7.71864C22.1511 7.65458 22.186 7.57014 22.186 7.46531C22.186 7.36048 22.1511 7.27604 22.0812 7.21198C22.0113 7.14792 21.9298 7.11588 21.8366 7.11588C21.7434 7.11588 21.6619 7.14792 21.592 7.21198C21.5221 7.27604 21.4872 7.36048 21.4872 7.46531C21.4872 7.57014 21.5221 7.65458 21.592 7.71864Z" fill="#0959A1"/>
</svg>
