<?xml version="1.0" encoding="utf-8"?>
<!-- Generator: Adobe Illustrator 24.0.0, SVG Export Plug-In . SVG Version: 6.00 Build 0)  -->
<svg version="1.1" id="Слой_1" xmlns="http://www.w3.org/2000/svg" xmlns:xlink="http://www.w3.org/1999/xlink" x="0px" y="0px"
	 width="16px" height="21px" viewBox="0 0 16 21" enable-background="new 0 0 16 21" xml:space="preserve">
<path fill="#0959A1" d="M10.6,21H5.4c-1.5,0-2.8-1.1-3-2.6L1,8.1c0-0.3,0-0.6,0.2-0.8C1.4,7.1,1.7,7,2,7h12c0.3,0,0.6,0.1,0.8,0.3
	C14.9,7.6,15,7.9,15,8.1l-1.5,10.3C13.3,19.9,12,21,10.6,21z M3.2,9l1.3,9.1C4.5,18.6,5,19,5.4,19h5.1c0.5,0,0.9-0.4,1-0.9L12.8,9
	H3.2z"/>
<path fill="#0959A1" d="M15,6h1V4h-1V6z M8,6h7V4H8V6z"/>
<path fill="#0959A1" d="M1,4H0v2h1V4z M6,4H1v2h5V4z"/>
<path fill="#0959A1" d="M12,5h-2V3c0-0.6-0.4-1-1-1H7C6.4,2,6,2.4,6,3v2H4V3c0-1.7,1.3-3,3-3h2c1.7,0,3,1.3,3,3V5z"/>
<path fill="#0959A1" d="M10,17H9v-6h1V17z M7,17H6v-6h1V17z"/>
</svg>
